<?xml version="1.0" standalone="no"?>
<!DOCTYPE svg PUBLIC "-//W3C//DTD SVG 20010904//EN"
 "http://www.w3.org/TR/2001/REC-SVG-20010904/DTD/svg10.dtd">
<svg version="1.0" xmlns="http://www.w3.org/2000/svg"
 width="512.000000pt" height="512.000000pt" viewBox="0 0 512.000000 512.000000"
 preserveAspectRatio="xMidYMid meet">
<metadata>
Created by potrace 1.11, written by Peter Selinger 2001-2013
</metadata>
<g transform="translate(0.000000,512.000000) scale(0.100000,-0.100000)"
fill="#000000" stroke="none">
<path d="M3170 4900 c-11 -11 -22 -20 -25 -20 -3 0 -16 -10 -29 -22 -13 -13
-40 -36 -60 -53 -20 -16 -52 -45 -72 -62 -19 -18 -44 -39 -55 -47 -20 -14 -19
-16 46 -78 78 -73 193 -191 227 -230 13 -16 40 -46 60 -68 20 -22 35 -40 33
-40 -2 0 6 -11 18 -25 59 -65 221 -299 238 -342 5 -13 14 -23 20 -23 7 0 10
-3 7 -6 -4 -3 17 -51 46 -107 47 -91 77 -159 80 -179 1 -4 7 -13 14 -19 6 -7
12 -18 12 -24 0 -7 18 -66 39 -133 22 -66 42 -134 45 -149 3 -15 11 -50 17
-78 6 -27 12 -59 14 -70 2 -11 4 -20 5 -20 1 0 3 -9 5 -20 21 -148 26 -198 21
-210 -3 -8 -2 -15 3 -15 10 0 14 -94 14 -310 1 -195 -14 -393 -38 -510 -3 -14
-7 -36 -10 -50 -10 -53 -14 -72 -19 -88 -3 -9 -7 -28 -10 -42 -9 -57 -64 -227
-106 -335 -5 -11 -31 -69 -59 -129 -28 -59 -51 -112 -51 -117 0 -5 -4 -9 -9
-9 -5 0 -13 -9 -16 -20 -10 -32 -116 -200 -126 -200 -5 0 -9 -7 -9 -15 0 -8
-5 -15 -11 -15 -5 0 -8 -4 -5 -8 3 -5 -6 -20 -20 -35 -13 -14 -24 -30 -24 -36
0 -5 -3 -11 -7 -13 -5 -1 -26 -25 -48 -53 -22 -27 -49 -61 -60 -74 -33 -39
-187 -202 -224 -235 -110 -101 -132 -126 -119 -140 7 -8 16 -12 21 -9 4 2 7 0
7 -5 0 -5 28 -31 63 -59 34 -28 74 -62 89 -76 53 -49 100 -81 106 -71 4 5 27
25 52 45 121 98 289 266 405 404 28 33 53 62 58 63 4 2 7 10 7 18 0 8 7 17 15
20 8 4 15 10 15 15 0 8 20 35 47 64 7 7 9 15 6 19 -3 3 2 8 11 12 9 3 16 11
16 18 0 6 11 23 24 38 14 14 22 29 19 32 -4 3 -2 6 4 6 6 0 13 8 17 18 5 17 9
23 59 99 15 23 27 45 27 48 0 4 16 34 35 66 19 33 35 67 35 75 0 7 4 14 9 14
5 0 12 12 16 27 4 16 12 34 18 41 6 8 13 23 14 35 2 12 9 25 16 29 6 4 9 8 5
8 -4 0 3 24 16 54 13 30 22 57 18 60 -3 3 1 6 8 6 7 0 11 3 7 6 -3 4 0 22 8
41 8 20 15 44 15 54 0 11 5 19 11 19 5 0 7 5 4 10 -4 6 -1 17 5 25 7 8 9 15 5
15 -4 0 -2 6 4 13 6 8 8 16 6 19 -3 3 -1 17 5 32 5 15 12 40 15 57 3 16 12 60
19 97 15 73 25 130 31 177 2 17 7 48 10 70 3 22 7 75 9 117 2 42 6 80 8 85 6
12 1 337 -6 433 -6 79 -9 102 -19 173 -3 15 0 27 7 27 7 0 6 3 -2 8 -7 5 -14
28 -17 53 -2 24 -7 58 -10 74 -4 17 -8 39 -10 50 -4 19 -32 144 -40 175 -2 8
-14 47 -25 85 -12 39 -24 79 -27 90 -3 11 -10 25 -15 32 -5 7 -7 17 -3 23 3 5
1 10 -4 10 -6 0 -11 6 -11 14 0 8 -10 36 -22 63 -12 26 -22 51 -22 54 -2 16
-72 155 -81 161 -5 4 -7 8 -3 8 4 0 -10 29 -32 65 -22 36 -40 68 -40 71 0 13
-143 224 -152 224 -5 0 -7 4 -4 9 3 4 -3 16 -14 26 -11 10 -20 22 -20 28 0 5
-8 17 -18 26 -10 9 -29 32 -42 51 -14 19 -32 42 -40 50 -8 9 -37 42 -65 74
-96 112 -225 236 -392 376 -17 14 -20 13 -43 -10z"/>
<path d="M1428 3825 c-29 -6 -71 -19 -93 -29 -22 -9 -41 -17 -42 -17 -3 1 -47
-36 -68 -56 -7 -7 -15 -10 -17 -8 -3 3 -11 -6 -18 -20 -7 -14 -17 -25 -21 -25
-14 0 -77 -124 -92 -181 -11 -45 -18 -254 -8 -254 2 0 5 -11 7 -25 11 -59 72
-166 121 -212 53 -49 137 -101 147 -91 3 3 6 2 6 -4 0 -6 12 -13 28 -16 15 -3
41 -8 57 -11 44 -9 134 -14 140 -7 3 2 20 6 38 7 17 0 32 2 32 3 0 2 11 5 24
7 116 21 286 190 304 300 1 10 6 25 11 32 4 7 9 54 11 104 5 163 -36 277 -136
377 -53 54 -66 63 -135 95 -85 40 -198 51 -296 31z"/>
<path d="M1455 1989 c-102 -22 -193 -72 -253 -138 -27 -31 -63 -84 -67 -101
-1 -3 -5 -12 -8 -20 -15 -33 -25 -116 -22 -189 4 -157 71 -270 201 -343 67
-37 128 -52 226 -52 92 -1 97 -2 101 -24 2 -12 0 -25 -5 -28 -4 -3 -6 -9 -3
-14 4 -6 -1 -41 -19 -135 -5 -26 -30 -91 -39 -102 -5 -7 -6 -13 -3 -13 8 0
-43 -98 -61 -118 -7 -7 -13 -17 -13 -21 0 -16 -199 -211 -216 -211 -3 0 -21
-12 -41 -28 -20 -15 -87 -52 -149 -83 l-113 -56 24 -50 c22 -46 46 -100 50
-113 2 -9 65 -144 68 -147 5 -4 110 37 125 49 6 6 12 8 12 5 0 -4 29 9 65 28
36 18 65 31 65 29 0 -3 6 0 13 6 6 5 48 33 92 61 44 28 82 55 83 60 2 5 8 9
13 9 28 0 235 212 273 279 5 9 12 18 15 21 31 26 136 262 156 350 34 149 39
196 39 360 1 194 -5 246 -41 365 -37 124 -114 241 -189 293 -35 23 -115 59
-154 69 -34 8 -188 10 -225 2z"/>
</g>
</svg>
